<?xml version="1.0" encoding="utf-8"?>
<!-- Generator: Adobe Illustrator 22.1.0, SVG Export Plug-In . SVG Version: 6.00 Build 0)  -->
<svg version="1.1" id="Capa_1" xmlns="http://www.w3.org/2000/svg" xmlns:xlink="http://www.w3.org/1999/xlink" x="0px" y="0px"
	 viewBox="0 0 326 326" style="enable-background:new 0 0 326 326;" xml:space="preserve">
<style type="text/css">
	.st0{opacity:0.2;fill:#79DEA8;}
	.st1{fill:#57B6B2;}
	.st2{fill:#FFD900;}
	.st3{fill:#FF7276;}
	.st4{fill:#F4B223;}
	.st5{fill:#79DEA8;}
	.st6{fill:#00CE7C;}
	.st7{fill:#DAE343;}
	.st8{fill:#F09F54;}
	.st9{fill:#323E48;}
	.st10{fill:#FFFFFF;}
	.st11{opacity:0.2;}
	.st12{opacity:0.25;}
</style>
<g>
	<path class="st1" d="M165.7,264.3v-39.7c25.5-11.3,46.5-37.7,55.9-51.6c0.6,4.3,0.9,8.5,0.9,13.1
		C222.1,239.9,178.7,259.7,165.7,264.3L165.7,264.3z"/>
	<path class="st2" d="M103.6,186.3c0-4.3,0.3-8.5,0.9-13.1c9.1,13.9,30.1,40.3,55.6,51.6v39.7C147,259.7,103.6,239.9,103.6,186.3
		L103.6,186.3z"/>
	<path class="st3" d="M160,61.4v64.4c-6.5-6.2-18.2-18.2-25.2-30.9C144.7,78.7,154.6,66.8,160,61.4z"/>
	<path class="st4" d="M190.9,94.9c-7.1,12.8-18.7,24.7-25.2,30.9V61.4C171.1,66.8,181,78.7,190.9,94.9z"/>
	<path class="st5" d="M165.7,178.9c5.7-4,29.8-21.6,45.1-46.2c4.3,10.2,7.4,21,9.6,31.8c-5.1,9.4-27,40.6-54.5,53.9l0-39.4H165.7z"
		/>
	<path class="st6" d="M160,178.9v39.4c-27.5-13.3-49.4-44.5-54.5-53.9c2-11.1,5.4-21.6,9.6-31.8C130.2,157.3,154.3,174.9,160,178.9
		L160,178.9z"/>
	<path class="st7" d="M160,171.8c-9.1-6.8-29.8-23.8-42.3-45.7c4.3-9.4,8.8-18.2,13.6-25.8c9.6,15.9,24.7,29.5,28.7,33.2L160,171.8z
		"/>
	<path class="st8" d="M165.7,133.5c4-3.4,19-17.3,28.7-33.2c4.8,7.9,9.4,16.7,13.6,25.8c-12.5,21.8-33.2,39.1-42.3,45.7L165.7,133.5
		z"/>
</g>
</svg>
